<svg width="23" height="23" viewBox="0 0 23 23" fill="none" xmlns="http://www.w3.org/2000/svg">
<path d="M4.525 9.7375C6.325 13.275 9.225 16.1625 12.7625 17.975L15.5125 15.225C15.85 14.8875 16.35 14.775 16.7875 14.925C18.1875 15.3875 19.7 15.6375 21.25 15.6375C21.9375 15.6375 22.5 16.2 22.5 16.8875V21.25C22.5 21.9375 21.9375 22.5 21.25 22.5C9.5125 22.5 0 12.9875 0 1.25C0 0.5625 0.5625 0 1.25 0H5.625C6.3125 0 6.875 0.5625 6.875 1.25C6.875 2.8125 7.125 4.3125 7.5875 5.7125C7.725 6.15 7.625 6.6375 7.275 6.9875L4.525 9.7375Z" fill="white"/>
</svg>
