<svg width="67" height="67" viewBox="0 0 67 67" fill="none" xmlns="http://www.w3.org/2000/svg">
<path d="M25 24.4167V42.25C25 43.5278 25.5833 44.5 26.75 45.1667C27.9167 45.8333 29.0556 45.7778 30.1667 45L44 36.1667C45.0556 35.5 45.5833 34.5556 45.5833 33.3333C45.5833 32.1111 45.0556 31.1667 44 30.5L30.1667 21.6667C29.0556 20.8889 27.9167 20.8333 26.75 21.5C25.5833 22.1667 25 23.1389 25 24.4167ZM33.3333 66.6667C28.7222 66.6667 24.3889 65.7911 20.3333 64.04C16.2778 62.2911 12.75 59.9167 9.75 56.9167C6.75 53.9167 4.37556 50.3889 2.62667 46.3333C0.875556 42.2778 0 37.9444 0 33.3333C0 28.7222 0.875556 24.3889 2.62667 20.3333C4.37556 16.2778 6.75 12.75 9.75 9.75C12.75 6.75 16.2778 4.37444 20.3333 2.62333C24.3889 0.874444 28.7222 0 33.3333 0C37.9444 0 42.2778 0.874444 46.3333 2.62333C50.3889 4.37444 53.9167 6.75 56.9167 9.75C59.9167 12.75 62.2911 16.2778 64.04 20.3333C65.7911 24.3889 66.6667 28.7222 66.6667 33.3333C66.6667 37.9444 65.7911 42.2778 64.04 46.3333C62.2911 50.3889 59.9167 53.9167 56.9167 56.9167C53.9167 59.9167 50.3889 62.2911 46.3333 64.04C42.2778 65.7911 37.9444 66.6667 33.3333 66.6667Z" fill="white"/>
</svg>
