<svg width="21" height="27" viewBox="0 0 21 27" fill="none" xmlns="http://www.w3.org/2000/svg">
<path d="M10.3125 0C7.57846 0.00322544 4.9573 1.09075 3.02403 3.02402C1.09076 4.95729 0.00323641 7.57844 1.09715e-05 10.3125C-0.00326361 12.5468 0.726555 14.7204 2.07751 16.5C2.07751 16.5 2.35876 16.8703 2.4047 16.9237L10.3125 26.25L18.2241 16.9191C18.2653 16.8694 18.5475 16.5 18.5475 16.5L18.5484 16.4972C19.8987 14.7184 20.6282 12.5457 20.625 10.3125C20.6218 7.57844 19.5343 4.95729 17.601 3.02402C15.6677 1.09075 13.0466 0.00322544 10.3125 0ZM10.3125 14.0625C9.57083 14.0625 8.84581 13.8426 8.22912 13.4305C7.61244 13.0185 7.13179 12.4328 6.84796 11.7476C6.56413 11.0623 6.48987 10.3083 6.63457 9.58091C6.77926 8.85348 7.13641 8.1853 7.66086 7.66085C8.18531 7.1364 8.85349 6.77925 9.58092 6.63455C10.3084 6.48986 11.0624 6.56412 11.7476 6.84795C12.4328 7.13178 13.0185 7.61243 13.4305 8.22911C13.8426 8.8458 14.0625 9.57082 14.0625 10.3125C14.0613 11.3067 13.6658 12.2598 12.9628 12.9628C12.2598 13.6658 11.3067 14.0613 10.3125 14.0625Z" fill="white"/>
</svg>
